<?xml version="1.0" encoding="UTF-8"?>
<svg version="1.1" xmlns="http://www.w3.org/2000/svg" width="1024" height="1024">
<path d="M0 0 C337.92 0 675.84 0 1024 0 C1024 337.92 1024 675.84 1024 1024 C686.08 1024 348.16 1024 0 1024 C0 686.08 0 348.16 0 0 Z " transform="translate(0,0)"/>
<path d="M0 0 C40.59 0 81.18 0 123 0 C123 10.89 123 21.78 123 33 C113.43 33 103.86 33 94 33 C94 43.89 94 54.78 94 66 C81.79 66 69.58 66 57 66 C57 77.22 57 88.44 57 100 C72.84 100 88.68 100 105 100 C105 88.78 105 77.56 105 66 C114.9 66 124.8 66 135 66 C135 54.78 135 43.56 135 32 C158.43 32 181.86 32 206 32 C206 21.44 206 10.88 206 0 C272.66 0 339.32 0 408 0 C408 21.78 408 43.56 408 66 C396.78 66 385.56 66 374 66 C374 77.55 374 89.1 374 101 C361.79 101 349.58 101 337 101 C337 145.22 337 189.44 337 235 C326.77 235 316.54 235 306 235 C306 245.56 306 256.12 306 267 C293.79 267 281.58 267 269 267 C269 278.22 269 289.44 269 301 C258.77 301 248.54 301 238 301 C238 311.89 238 322.78 238 334 C227.11 334 216.22 334 205 334 C205 354.79 205 375.58 205 397 C215.23 397 225.46 397 236 397 C236 387.43 236 377.86 236 368 C247.22 368 258.44 368 270 368 C270 388.46 270 408.92 270 430 C281.22 430 292.44 430 304 430 C304 418.78 304 407.56 304 396 C314.89 396 325.78 396 337 396 C337 407.22 337 418.44 337 430 C348.55 430 360.1 430 372 430 C372 440.56 372 451.12 372 462 C382.56 462 393.12 462 404 462 C404 451.11 404 440.22 404 429 C427.1 429 450.2 429 474 429 C474 451.11 474 473.22 474 496 C462.45 496 450.9 496 439 496 C439 506.56 439 517.12 439 528 C427.78 528 416.56 528 405 528 C405 538.89 405 549.78 405 561 C360.45 561 315.9 561 270 561 C270 572.22 270 583.44 270 595 C281.22 595 292.44 595 304 595 C304 616.78 304 638.56 304 661 C281.89 661 259.78 661 237 661 C237 650.44 237 639.88 237 629 C226.44 629 215.88 629 205 629 C205 617.78 205 606.56 205 595 C193.12 595 181.24 595 169 595 C169 606.22 169 617.44 169 629 C177.91 629 186.82 629 196 629 C196 639.56 196 650.12 196 661 C176.2 661 156.4 661 136 661 C136 650.44 136 639.88 136 629 C125.77 629 115.54 629 105 629 C105 617.78 105 606.56 105 595 C93.45 595 81.9 595 70 595 C70 583.78 70 572.56 70 561 C58.45 561 46.9 561 35 561 C35 572.22 35 583.44 35 595 C43.91 595 52.82 595 62 595 C62 606.22 62 617.44 62 629 C40.88 629 19.76 629 -2 629 C-2 606.56 -2 584.12 -2 561 C-10.25 561 -18.5 561 -27 561 C-27 572.22 -27 583.44 -27 595 C-45.81 595 -64.62 595 -84 595 C-84 572.89 -84 550.78 -84 528 C-90.93 528 -97.86 528 -105 528 C-105 517.44 -105 506.88 -105 496 C-116.22 496 -127.44 496 -139 496 C-139 485.11 -139 474.22 -139 463 C-149.23 463 -159.46 463 -170 463 C-170 452.11 -170 441.22 -170 430 C-212.9 430 -255.8 430 -300 430 C-300 440.89 -300 451.78 -300 463 C-310.89 463 -321.78 463 -333 463 C-333 484.45 -333 505.9 -333 528 C-343.23 528 -353.46 528 -364 528 C-364 538.89 -364 549.78 -364 561 C-396.67 561 -429.34 561 -463 561 C-463 539.22 -463 517.44 -463 495 C-452.11 495 -441.22 495 -430 495 C-430 473.55 -430 452.1 -430 430 C-398.32 430 -366.64 430 -334 430 C-334 419.44 -334 408.88 -334 398 C-343.9 398 -353.8 398 -364 398 C-364 365.66 -364 333.32 -364 300 C-342.55 300 -321.1 300 -299 300 C-299 289.11 -299 278.22 -299 267 C-288.77 267 -278.54 267 -268 267 C-268 256.11 -268 245.22 -268 234 C-246.88 234 -225.76 234 -204 234 C-204 223.11 -204 212.22 -204 201 C-182.22 201 -160.44 201 -138 201 C-138 189.78 -138 178.56 -138 167 C-127.11 167 -116.22 167 -105 167 C-105 133.67 -105 100.34 -105 66 C-94.11 66 -83.22 66 -72 66 C-72 54.78 -72 43.56 -72 32 C-48.24 32 -24.48 32 0 32 C0 21.44 0 10.88 0 0 Z " fill="#C42B2B" transform="translate(490,171)"/>
<path d="M0 0 C40.59 0 81.18 0 123 0 C123 10.89 123 21.78 123 33 C113.43 33 103.86 33 94 33 C94 43.89 94 54.78 94 66 C81.79 66 69.58 66 57 66 C57 77.22 57 88.44 57 100 C72.84 100 88.68 100 105 100 C105 88.78 105 77.56 105 66 C114.9 66 124.8 66 135 66 C135 54.78 135 43.56 135 32 C158.43 32 181.86 32 206 32 C206 21.44 206 10.88 206 0 C272.66 0 339.32 0 408 0 C408 21.78 408 43.56 408 66 C396.78 66 385.56 66 374 66 C374 55.11 374 44.22 374 33 C318.56 33 263.12 33 206 33 C206 43.89 206 54.78 206 66 C183.23 66 160.46 66 137 66 C137 77.22 137 88.44 137 100 C126.77 100 116.54 100 106 100 C106 111.88 106 123.76 106 136 C94.45 136 82.9 136 71 136 C71 190.12 71 244.24 71 300 C59.00895885 300.57100196 47.00462874 301 35 301 C35 311.89 35 322.78 35 334 C23.45 334 11.9 334 0 334 C0 345.22 0 356.44 0 368 C-19.14 367.67 -38.28 367.34 -58 367 C-58 356.11 -58 345.22 -58 334 C-66.91 334 -75.82 334 -85 334 C-84.67 322.78 -84.34 311.56 -84 300 C-90.93 300 -97.86 300 -105 300 C-105 289.11 -105 278.22 -105 267 C-115.89 267 -126.78 267 -138 267 C-138 256.11 -138 245.22 -138 234 C-159.45 234.33 -180.9 234.66 -203 235 C-203 245.56 -203 256.12 -203 267 C-224.45 267 -245.9 267 -268 267 C-268 256.11 -268 245.22 -268 234 C-246.88 234 -225.76 234 -204 234 C-204 223.11 -204 212.22 -204 201 C-182.22 201 -160.44 201 -138 201 C-138 189.78 -138 178.56 -138 167 C-127.11 167 -116.22 167 -105 167 C-105 133.67 -105 100.34 -105 66 C-94.11 66 -83.22 66 -72 66 C-72 54.78 -72 43.56 -72 32 C-48.24 32 -24.48 32 0 32 C0 21.44 0 10.88 0 0 Z " fill="#AA2626" transform="translate(490,171)"/>
<path d="M0 0 C55.44 0 110.88 0 168 0 C168 22.44 168 44.88 168 68 C155.79 68 143.58 68 131 68 C131 112.22 131 156.44 131 202 C120.77 202 110.54 202 100 202 C100 212.56 100 223.12 100 234 C87.79 234 75.58 234 63 234 C63 245.22 63 256.44 63 268 C52.77 268 42.54 268 32 268 C32 278.89 32 289.78 32 301 C9.23 301 -13.54 301 -37 301 C-37 312.22 -37 323.44 -37 335 C-57.79 335 -78.58 335 -100 335 C-100 323.45 -100 311.9 -100 300 C-90.1 300 -80.2 300 -70 300 C-70 267.33 -70 234.66 -70 201 C-79.9 201 -89.8 201 -100 201 C-100 179.22 -100 157.44 -100 135 C-90.43 135 -80.86 135 -71 135 C-71 146.22 -71 157.44 -71 169 C-37.34 169 -3.68 169 31 169 C31 157.78 31 146.56 31 135 C8.89 135 -13.22 135 -36 135 C-36 124.44 -36 113.88 -36 103 C-47.22 103 -58.44 103 -70 103 C-70.0309375 95.141875 -70.0309375 95.141875 -70.0625 87.125 C-70.071604 85.55508301 -70.08070801 83.98516602 -70.09008789 82.36767578 C-70.11999461 65.88038839 -69.48569735 49.51370975 -69 33 C-46.23 33 -23.46 33 0 33 C0 22.11 0 11.22 0 0 Z " fill="#E45D20" transform="translate(696,204)"/>
<path d="M0 0 C10.23 0 20.46 0 31 0 C31 11.22 31 22.44 31 34 C20.77 34 10.54 34 0 34 C0 44.56 0 55.12 0 66 C-11.55 66 -23.1 66 -35 66 C-35 87.12 -35 108.24 -35 130 C29.68 130 94.36 130 161 130 C161 151.78 161 173.56 161 196 C172.22 196 183.44 196 195 196 C195 206.56 195 217.12 195 228 C209.52 228 224.04 228 239 228 C239 238.56 239 249.12 239 260 C258.47 260 277.94 260 298 260 C298 270.89 298 281.78 298 293 C309.55 293 321.1 293 333 293 C333 282.44 333 271.88 333 261 C344.55 261 356.1 261 368 261 C368 250.11 368 239.22 368 228 C380.21 228 392.42 228 405 228 C405 238.89 405 249.78 405 261 C415.23 261 425.46 261 436 261 C436 271.89 436 282.78 436 294 C458.44 294 480.88 294 504 294 C504 305.22 504 316.44 504 328 C492.12 328 480.24 328 468 328 C468 339.22 468 350.44 468 362 C476.91 362 485.82 362 495 362 C495 372.56 495 383.12 495 394 C475.2 394 455.4 394 435 394 C435 383.44 435 372.88 435 362 C424.77 362 414.54 362 404 362 C404 350.78 404 339.56 404 328 C392.45 328 380.9 328 369 328 C369 316.78 369 305.56 369 294 C357.45 294 345.9 294 334 294 C334 305.22 334 316.44 334 328 C342.91 328 351.82 328 361 328 C361 339.22 361 350.44 361 362 C339.88 362 318.76 362 297 362 C297 339.56 297 317.12 297 294 C288.75 294 280.5 294 272 294 C272 305.22 272 316.44 272 328 C253.19 328 234.38 328 215 328 C215 305.89 215 283.78 215 261 C208.07 261 201.14 261 194 261 C194 250.44 194 239.88 194 229 C182.78 229 171.56 229 160 229 C160 218.11 160 207.22 160 196 C149.77 196 139.54 196 129 196 C129 185.11 129 174.22 129 163 C86.1 163 43.2 163 -1 163 C-1 173.89 -1 184.78 -1 196 C-11.89 196 -22.78 196 -34 196 C-34 217.45 -34 238.9 -34 261 C-44.23 261 -54.46 261 -65 261 C-65 271.89 -65 282.78 -65 294 C-97.67 294 -130.34 294 -164 294 C-164 272.22 -164 250.44 -164 228 C-153.11 228 -142.22 228 -131 228 C-131 206.55 -131 185.1 -131 163 C-99.32 163 -67.64 163 -35 163 C-35 152.44 -35 141.88 -35 131 C-44.9 131 -54.8 131 -65 131 C-65 98.66 -65 66.32 -65 33 C-43.55 33 -22.1 33 0 33 C0 22.11 0 11.22 0 0 Z " fill="#1B1D21" transform="translate(191,438)"/>
<path d="M0 0 C11.88 0 23.76 0 36 0 C36 20.79 36 41.58 36 63 C46.23 63 56.46 63 67 63 C67 53.43 67 43.86 67 34 C78.22 34 89.44 34 101 34 C101 54.46 101 74.92 101 96 C112.22 96 123.44 96 135 96 C135 84.78 135 73.56 135 62 C145.89 62 156.78 62 168 62 C168 73.22 168 84.44 168 96 C179.55 96 191.1 96 203 96 C203 106.56 203 117.12 203 128 C213.56 128 224.12 128 235 128 C235 117.11 235 106.22 235 95 C258.1 95 281.2 95 305 95 C305 117.11 305 139.22 305 162 C293.45 162 281.9 162 270 162 C270 172.56 270 183.12 270 194 C258.78 194 247.56 194 236 194 C236 204.89 236 215.78 236 227 C191.45 227 146.9 227 101 227 C101 238.22 101 249.44 101 261 C112.22 261 123.44 261 135 261 C135 282.78 135 304.56 135 327 C112.89 327 90.78 327 68 327 C68 316.44 68 305.88 68 295 C57.44 295 46.88 295 36 295 C36 283.78 36 272.56 36 261 C46.56 261 57.12 261 68 261 C68 238.89 68 216.78 68 194 C57.44 194 46.88 194 36 194 C36 183.11 36 172.22 36 161 C46.89 161 57.78 161 69 161 C69 171.89 69 182.78 69 194 C123.78 194 178.56 194 235 194 C235 183.44 235 172.88 235 162 C224.44 162 213.88 162 203 162 C203 151.11 203 140.22 203 129 C168.68 129 134.36 129 99 129 C99.33 118.11 99.66 107.22 100 96 C78.88 96 57.76 96 36 96 C36 85.44 36 74.88 36 64 C3 64 -30 64 -64 64 C-64 54.1 -64 44.2 -64 34 C-42.88 34 -21.76 34 0 34 C0 22.78 0 11.56 0 0 Z " fill="#1C1E21" transform="translate(659,505)"/>
<path d="M0 0 C40.59 0 81.18 0 123 0 C123 10.89 123 21.78 123 33 C113.43 33 103.86 33 94 33 C94 43.89 94 54.78 94 66 C81.79 66 69.58 66 57 66 C57 55.11 57 44.22 57 33 C38.19 33 19.38 33 0 33 C0 43.89 0 54.78 0 66 C-35.145 66.495 -35.145 66.495 -71 67 C-71.33 100 -71.66 133 -72 167 C-56.82 167 -41.64 167 -26 167 C-26 189.44 -26 211.88 -26 235 C-35.9 235 -45.8 235 -56 235 C-56 245.56 -56 256.12 -56 267 C-46.1 267 -36.2 267 -26 267 C-26 278.22 -26 289.44 -26 301 C-36.23 301 -46.46 301 -57 301 C-57 311.89 -57 322.78 -57 334 C-38.52 334 -20.04 334 -1 334 C-1 344.89 -1 355.78 -1 367 C-19.81 367 -38.62 367 -58 367 C-58 356.11 -58 345.22 -58 334 C-66.91 334 -75.82 334 -85 334 C-84.67 322.78 -84.34 311.56 -84 300 C-90.93 300 -97.86 300 -105 300 C-105 289.11 -105 278.22 -105 267 C-115.89 267 -126.78 267 -138 267 C-138 256.11 -138 245.22 -138 234 C-159.45 234.33 -180.9 234.66 -203 235 C-203 245.56 -203 256.12 -203 267 C-224.45 267 -245.9 267 -268 267 C-268 256.11 -268 245.22 -268 234 C-246.88 234 -225.76 234 -204 234 C-204 223.11 -204 212.22 -204 201 C-182.22 201 -160.44 201 -138 201 C-138 189.78 -138 178.56 -138 167 C-127.11 167 -116.22 167 -105 167 C-105 133.67 -105 100.34 -105 66 C-94.11 66 -83.22 66 -72 66 C-72 54.78 -72 43.56 -72 32 C-48.24 32 -24.48 32 0 32 C0 21.44 0 10.88 0 0 Z " fill="#1A1D21" transform="translate(490,171)"/>
<path d="M0 0 C66.66 0 133.32 0 202 0 C202 21.78 202 43.56 202 66 C190.78 66 179.56 66 168 66 C168 55.11 168 44.22 168 33 C112.56 33 57.12 33 0 33 C0 43.89 0 54.78 0 66 C-22.77 66 -45.54 66 -69 66 C-69 77.22 -69 88.44 -69 100 C-79.23 100 -89.46 100 -100 100 C-100 111.88 -100 123.76 -100 136 C-111.55 136 -123.1 136 -135 136 C-135 190.12 -135 244.24 -135 300 C-146.99104115 300.57100196 -158.99537126 301 -171 301 C-171 234.67 -171 168.34 -171 100 C-147.9 100 -124.8 100 -101 100 C-101 88.78 -101 77.56 -101 66 C-91.1 66 -81.2 66 -71 66 C-71 54.78 -71 43.56 -71 32 C-47.57 32 -24.14 32 0 32 C0 21.44 0 10.88 0 0 Z " fill="#1B1D21" transform="translate(696,171)"/>
<path d="M0 0 C9.57 0 19.14 0 29 0 C29 11.55 29 23.1 29 35 C62.33 35 95.66 35 130 35 C130 45.23 130 55.46 130 66 C140.89 66 151.78 66 163 66 C163 88.11 163 110.22 163 133 C152.77 133 142.54 133 132 133 C132 143.89 132 154.78 132 166 C109.23 166 86.46 166 63 166 C63 177.22 63 188.44 63 200 C42.21 200 21.42 200 0 200 C0 188.45 0 176.9 0 165 C9.9 165 19.8 165 30 165 C30 132.33 30 99.66 30 66 C20.1 66 10.2 66 0 66 C0 44.22 0 22.44 0 0 Z " fill="#E55D20" transform="translate(596,339)"/>
<path d="M0 0 C42.9 0 85.8 0 130 0 C130 10.89 130 21.78 130 33 C119.11 33 108.22 33 97 33 C97 54.45 97 75.9 97 98 C86.77 98 76.54 98 66 98 C66 108.89 66 119.78 66 131 C33.33 131 0.66 131 -33 131 C-33 109.22 -33 87.44 -33 65 C-22.11 65 -11.22 65 0 65 C0 43.55 0 22.1 0 0 Z " fill="#E55F1D" transform="translate(60,601)"/>
<path d="M0 0 C12.21 0 24.42 0 37 0 C37 10.89 37 21.78 37 33 C47.23 33 57.46 33 68 33 C68 43.89 68 54.78 68 66 C90.44 66 112.88 66 136 66 C136 77.22 136 88.44 136 100 C124.12 100 112.24 100 100 100 C100 111.22 100 122.44 100 134 C108.91 134 117.82 134 127 134 C127 144.56 127 155.12 127 166 C107.2 166 87.4 166 67 166 C67 155.44 67 144.88 67 134 C56.77 134 46.54 134 36 134 C36 122.78 36 111.56 36 100 C24.45 100 12.9 100 1 100 C0.75043408 84.60267375 0.75043408 84.60267375 0.64453125 77.79492188 C0.57358075 73.23491956 0.50219122 68.67492887 0.42724609 64.11499023 C0.07678266 42.73977685 -0.04679335 21.37871293 0 0 Z " fill="#1B1D21" transform="translate(559,666)"/>
<path d="M0 0 C11.88 0 23.76 0 36 0 C36 20.79 36 41.58 36 63 C46.23 63 56.46 63 67 63 C67 53.43 67 43.86 67 34 C78.22 34 89.44 34 101 34 C101 54.46 101 74.92 101 96 C112.22 96 123.44 96 135 96 C135 84.78 135 73.56 135 62 C145.89 62 156.78 62 168 62 C168 73.22 168 84.44 168 96 C179.55 96 191.1 96 203 96 C203 106.56 203 117.12 203 128 C169.01 128 135.02 128 100 128 C100 117.44 100 106.88 100 96 C78.88 96 57.76 96 36 96 C36 85.44 36 74.88 36 64 C3 64 -30 64 -64 64 C-64 54.1 -64 44.2 -64 34 C-42.88 34 -21.76 34 0 34 C0 22.78 0 11.56 0 0 Z " fill="#1A1C20" transform="translate(659,505)"/>
<path d="M0 0 C10.23 0 20.46 0 31 0 C31 44.22 31 88.44 31 134 C20.77 134 10.54 134 0 134 C0 144.56 0 155.12 0 166 C-12.21 166 -24.42 166 -37 166 C-37 155.11 -37 144.22 -37 133 C-47.56 133 -58.12 133 -69 133 C-69.020625 127.905625 -69.04125 122.81125 -69.0625 117.5625 C-69.071604 115.95318604 -69.08070801 114.34387207 -69.09008789 112.68579102 C-69.09258545 111.42951904 -69.09508301 110.17324707 -69.09765625 108.87890625 C-69.10289307 107.5854126 -69.10812988 106.29191895 -69.11352539 104.95922852 C-69 102 -69 102 -68 101 C-65.91380978 100.90582227 -63.82439523 100.88257122 -61.73608398 100.88647461 C-61.07184701 100.88635407 -60.40761003 100.88623354 -59.72324467 100.88610935 C-57.56416079 100.88685824 -55.40516227 100.89448532 -53.24609375 100.90234375 C-51.27195496 100.90385437 -51.27195496 100.90385437 -49.25793457 100.90539551 C-44.31778091 100.91064752 -39.37763963 100.92460861 -34.4375 100.9375 C-23.403125 100.958125 -12.36875 100.97875 -1 101 C-0.67 67.67 -0.34 34.34 0 0 Z " fill="#1A1C20" transform="translate(796,272)"/>
<path d="M0 0 C23.1 0 46.2 0 70 0 C70 22.11 70 44.22 70 67 C58.45 67 46.9 67 35 67 C35 77.56 35 88.12 35 99 C23.78 99 12.56 99 1 99 C1 108.57 1 118.14 1 128 C0.67 128 0.34 128 0 128 C0 107.87 0 87.74 0 67 C-10.56 67 -21.12 67 -32 67 C-32 56.11 -32 45.22 -32 34 C-66.32 34 -100.64 34 -136 34 C-135.67 32.68 -135.34 31.36 -135 30 C-135 30.99 -135 31.98 -135 33 C-90.45 33 -45.9 33 0 33 C0 22.11 0 11.22 0 0 Z " fill="#1A1C20" transform="translate(894,600)"/>
<path d="M0 0 C55.44 0 110.88 0 168 0 C168 22.44 168 44.88 168 68 C155.79 68 143.58 68 131 68 C130.67 56.78 130.34 45.56 130 34 C65.65 33.505 65.65 33.505 0 33 C0 22.11 0 11.22 0 0 Z " fill="#BC292A" transform="translate(696,204)"/>
<path d="M0 0 C16.77111356 -0.02277589 33.54221344 -0.04111038 50.31333828 -0.05181217 C58.1044871 -0.05691834 65.89562548 -0.06384934 73.68676758 -0.07543945 C80.49574402 -0.08556346 87.30471288 -0.0918944 94.11369663 -0.09408849 C97.70242414 -0.09536633 101.29113 -0.09825744 104.87985039 -0.10573006 C125.27910314 -0.14657572 145.61178422 0.30459172 166 1 C166 11.56 166 22.12 166 33 C111.22 33 56.44 33 0 33 C0 22.11 0 11.22 0 0 Z " fill="#A22324" transform="translate(728,666)"/>
<path d="M0 0 C0.33 0 0.66 0 1 0 C1 24.09 1 48.18 1 73 C-11.21 73 -23.42 73 -36 73 C-36 62.11 -36 51.22 -36 40 C-46.56 40 -57.12 40 -68 40 C-68.020625 34.905625 -68.04125 29.81125 -68.0625 24.5625 C-68.071604 22.95318604 -68.08070801 21.34387207 -68.09008789 19.68579102 C-68.09258545 18.42951904 -68.09508301 17.17324707 -68.09765625 15.87890625 C-68.10289307 14.5854126 -68.10812988 13.29191895 -68.11352539 11.95922852 C-68 9 -68 9 -67 8 C-64.91380978 7.90582227 -62.82439523 7.88257122 -60.73608398 7.88647461 C-59.7556311 7.88625557 -59.7556311 7.88625557 -58.75537109 7.8860321 C-56.58557872 7.88673117 -54.41587121 7.89452322 -52.24609375 7.90234375 C-50.74536689 7.90420795 -49.24463943 7.90563184 -47.74391174 7.90663147 C-43.78681774 7.91045648 -39.82976022 7.9202866 -35.87268066 7.93133545 C-31.83765151 7.94154994 -27.80261647 7.94612917 -23.76757812 7.95117188 C-15.84503531 7.96190889 -7.92252219 7.9789851 0 8 C0 5.36 0 2.72 0 0 Z " fill="#B72929" transform="translate(795,365)"/>
<path d="M0 0 C11.22 0 22.44 0 34 0 C34 21.78 34 43.56 34 66 C11.89 66 -10.22 66 -33 66 C-33 55.44 -33 44.88 -33 34 C-22.11 34 -11.22 34 0 34 C0 22.78 0 11.56 0 0 Z " fill="#191C1F" transform="translate(760,766)"/>
<path d="M0 0 C8.58 0 17.16 0 26 0 C26.17007031 9.81244977 26.33817665 19.62491311 26.5 29.4375 C26.51187725 30.1575182 26.5237545 30.87753639 26.53599167 31.61937332 C26.88846133 53.08038743 27.16783216 74.53555765 27 96 C26.67 96 26.34 96 26 96 C26 85.44 26 74.88 26 64 C21.070625 64.020625 16.14125 64.04125 11.0625 64.0625 C-3.32439961 64.091902 -17.62513905 63.68861609 -32 63 C-32 52.77 -32 42.54 -32 32 C-21.44 32 -10.88 32 0 32 C0 21.44 0 10.88 0 0 Z " fill="#A02223" transform="translate(463,634)"/>
<path d="M0 0 C12.21 0 24.42 0 37 0 C37.09544947 22.04882733 36.76314566 43.96416899 36 66 C24.78 66 13.56 66 2 66 C2 76.89 2 87.78 2 99 C1.67 99 1.34 99 1 99 C0.86641311 90.96465192 0.73591081 82.92926104 0.60884857 74.89380741 C0.5496958 71.15842882 0.48966412 67.42306971 0.42724609 63.68774414 C0.07331376 42.454891 -0.04638047 21.23645579 0 0 Z " fill="#1C1D21" transform="translate(559,666)"/>
<path d="M0 0 C22.77 0 45.54 0 69 0 C74.0706125 10.141225 70 22.66176577 70 34 C46.9 34 23.8 34 0 34 C0 22.78 0 11.56 0 0 Z " fill="#BB292A" transform="translate(627,237)"/>
<path d="M0 0 C0.33 0 0.66 0 1 0 C1 22.44 1 44.88 1 68 C-20.45 68 -41.9 68 -64 68 C-64 56.78 -64 45.56 -64 34 C-42.88 34 -21.76 34 0 34 C0 22.78 0 11.56 0 0 Z " fill="#AE2727" transform="translate(759,732)"/>
<path d="M0 0 C10.56 0 21.12 0 32 0 C32 11.22 32 22.44 32 34 C21.77 34 11.54 34 1 34 C1 44.89 1 55.78 1 67 C-9.89 67 -20.78 67 -32 67 C-32 56.11 -32 45.22 -32 34 C-21.44 34 -10.88 34 0 34 C0 22.78 0 11.56 0 0 Z " fill="#1C1E22" transform="translate(727,438)"/>
<path d="M0 0 C20.46 0 40.92 0 62 0 C62 10.56 62 21.12 62 32 C41.54 32 21.08 32 0 32 C0 21.44 0 10.88 0 0 Z " fill="#191D21" transform="translate(256,472)"/>
<path d="M0 0 C17.49 0 34.98 0 53 0 C53 10.56 53 21.12 53 32 C35.51 32 18.02 32 0 32 C0 21.44 0 10.88 0 0 Z " fill="#393E44" transform="translate(352,406)"/>
<path d="M0 0 C10.89 0 21.78 0 33 0 C33 10.89 33 21.78 33 33 C87.78 33 142.56 33 199 33 C199.33 43.89 199.66 54.78 200 66 C155.12 66 110.24 66 64 66 C64 65.67 64 65.34 64 65 C108.22 65 152.44 65 198 65 C198 54.77 198 44.54 198 34 C143.55 34 89.1 34 33 34 C33 55.78 33 77.56 33 100 C32.67 100 32.34 100 32 100 C32 77.89 32 55.78 32 33 C21.44 33 10.88 33 0 33 C0 22.11 0 11.22 0 0 Z " fill="#14191D" transform="translate(695,666)"/>
<path d="M0 0 C14.52 0 29.04 0 44 0 C44.020625 5.094375 44.04125 10.18875 44.0625 15.4375 C44.071604 17.04681396 44.08070801 18.65612793 44.09008789 20.31420898 C44.09258545 21.57048096 44.09508301 22.82675293 44.09765625 24.12109375 C44.10289307 25.4145874 44.10812988 26.70808105 44.11352539 28.04077148 C44 31 44 31 43 32 C41.64905018 32.09268999 40.29332909 32.11747326 38.93920898 32.11352539 C38.07839218 32.11344986 37.21757538 32.11337433 36.33067322 32.11329651 C35.39526199 32.10813522 34.45985077 32.10297394 33.49609375 32.09765625 C32.54307877 32.0962413 31.59006378 32.09482635 30.60816956 32.09336853 C27.55124835 32.08775152 24.49439923 32.07519616 21.4375 32.0625 C19.37044376 32.05748719 17.30338638 32.05292391 15.23632812 32.04882812 C10.15750167 32.03862558 5.07883194 32.01905356 0 32 C0 21.44 0 10.88 0 0 Z " fill="#B02727" transform="translate(386,634)"/>
<path d="M0 0 C10.56 0 21.12 0 32 0 C32 10.89 32 21.78 32 33 C54.44 33 76.88 33 100 33 C100 44.22 100 55.44 100 67 C88.12 67 76.24 67 64 67 C64 78.22 64 89.44 64 101 C63.67 101 63.34 101 63 101 C63 89.45 63 77.9 63 66 C74.88 66 86.76 66 99 66 C99 55.77 99 45.54 99 35 C77.22 35 55.44 35 33 35 C33 45.56 33 56.12 33 67 C32.67 67 32.34 67 32 67 C31.67 56.11 31.34 45.22 31 34 C20.77 33.67 10.54 33.34 0 33 C0 22.11 0 11.22 0 0 Z " fill="#161B1F" transform="translate(595,699)"/>
<path d="M0 0 C10.23 0 20.46 0 31 0 C31 11.22 31 22.44 31 34 C-0.67664948 35.31302174 -32.29298365 35.06717588 -64 35 C-64 66.35 -64 97.7 -64 130 C-54.43 130 -44.86 130 -35 130 C-35 130.33 -35 130.66 -35 131 C-44.9 131 -54.8 131 -65 131 C-65 98.66 -65 66.32 -65 33 C-43.55 33 -22.1 33 0 33 C0 22.11 0 11.22 0 0 Z " fill="#15171A" transform="translate(191,438)"/>
<path d="M0 0 C12.21 0 24.42 0 37 0 C37 11.55 37 23.1 37 35 C24.79 35 12.58 35 0 35 C0 23.45 0 11.9 0 0 Z " fill="#191B20" transform="translate(827,237)"/>
<path d="M0 0 C0.33 0 0.66 0 1 0 C1 21.12 1 42.24 1 64 C11.56 64 22.12 64 33 64 C33 74.89 33 85.78 33 97 C22.11 97 11.22 97 0 97 C0 86.44 0 75.88 0 65 C-10.56 65 -21.12 65 -32 65 C-32 86.12 -32 107.24 -32 129 C-32.33 129 -32.66 129 -33 129 C-33 107.55 -33 86.1 -33 64 C-22.11 64 -11.22 64 0 64 C0 42.88 0 21.76 0 0 Z " fill="#FC9715" transform="translate(60,602)"/>
<path d="M0 0 C12.21 0 24.42 0 37 0 C37 10.56 37 21.12 37 32 C24.79 32 12.58 32 0 32 C0 21.44 0 10.88 0 0 Z " fill="#181B1F" transform="translate(759,406)"/>
<path d="M0 0 C11.22 0 22.44 0 34 0 C34 11.22 34 22.44 34 34 C22.45 34 10.9 34 -1 34 C-0.67 22.78 -0.34 11.56 0 0 Z " fill="#1A1C20" transform="translate(561,732)"/>
<path d="M0 0 C11.88 0 23.76 0 36 0 C36 10.56 36 21.12 36 32 C24.12 32 12.24 32 0 32 C0 21.44 0 10.88 0 0 Z " fill="#B02727" transform="translate(659,634)"/>
<path d="M0 0 C11.88 0 23.76 0 36 0 C36 10.56 36 21.12 36 32 C24.12 32 12.24 32 0 32 C0 21.44 0 10.88 0 0 Z " fill="#191D21" transform="translate(489,472)"/>
<path d="M0 0 C11.22 0 22.44 0 34 0 C34 10.89 34 21.78 34 33 C22.78 33 11.56 33 0 33 C0 22.11 0 11.22 0 0 Z " fill="#B32727" transform="translate(561,699)"/>
<path d="M0 0 C11.88 0 23.76 0 36 0 C36 10.23 36 20.46 36 31 C24.12 31 12.24 31 0 31 C0 20.77 0 10.54 0 0 Z " fill="#B02727" transform="translate(560,634)"/>
<path d="M0 0 C10.56 0 21.12 0 32 0 C32 11.22 32 22.44 32 34 C21.44 34 10.88 34 0 34 C0 22.78 0 11.56 0 0 Z " fill="#191B1F" transform="translate(695,766)"/>
<path d="M0 0 C11.22 0 22.44 0 34 0 C34 10.56 34 21.12 34 32 C22.78 32 11.56 32 0 32 C0 21.44 0 10.88 0 0 Z " fill="#CB2C2C" transform="translate(895,634)"/>
<path d="M0 0 C5.094375 -0.020625 10.18875 -0.04125 15.4375 -0.0625 C17.04681396 -0.071604 18.65612793 -0.08070801 20.31420898 -0.09008789 C21.57048096 -0.09258545 22.82675293 -0.09508301 24.12109375 -0.09765625 C26.06133423 -0.10551147 26.06133423 -0.10551147 28.04077148 -0.11352539 C31 0 31 0 32 1 C32.08843793 3.44830426 32.11528752 5.86820599 32.09765625 8.31640625 C32.0962413 9.04746078 32.09482635 9.77851532 32.09336853 10.53172302 C32.08775408 12.87535632 32.07519922 15.21889539 32.0625 17.5625 C32.05748686 19.14778508 32.05292363 20.73307166 32.04882812 22.31835938 C32.03862921 26.21230543 32.01905687 30.10604677 32 34 C21.44 34 10.88 34 0 34 C0 22.78 0 11.56 0 0 Z " fill="#B02727" transform="translate(595,732)"/>
<path d="M0 0 C10.89 0 21.78 0 33 0 C33 10.23 33 20.46 33 31 C22.11 31 11.22 31 0 31 C0 20.77 0 10.54 0 0 Z " fill="#AF2727" transform="translate(353,601)"/>
<path d="M0 0 C10.89 0 21.78 0 33 0 C33 10.23 33 20.46 33 31 C22.11 31 11.22 31 0 31 C0 20.77 0 10.54 0 0 Z " fill="#A42323" transform="translate(352,537)"/>
<path d="M0 0 C9.9 0 19.8 0 30 0 C30 10.89 30 21.78 30 33 C20.1 33 10.2 33 0 33 C0 22.11 0 11.22 0 0 Z " fill="#FE9A0D" transform="translate(94,633)"/>
<path d="M0 0 C9.57 0 19.14 0 29 0 C29 10.89 29 21.78 29 33 C19.43 33 9.86 33 0 33 C0 22.11 0 11.22 0 0 Z " fill="#393E44" transform="translate(405,372)"/>
<path d="M0 0 C8.58 0 17.16 0 26 0 C26 10.56 26 21.12 26 32 C17.42 32 8.84 32 0 32 C0 21.44 0 10.88 0 0 Z " fill="#B12727" transform="translate(463,634)"/>
<path d="M0 0 C18.81 0 37.62 0 57 0 C56.67 10.56 56.34 21.12 56 32 C55.67 32 55.34 32 55 32 C55 21.77 55 11.54 55 1 C37.51 1 20.02 1 2 1 C2.03959995 11.81533243 2.03959995 11.81533243 2.09008789 22.63061523 C2.09300716 23.98160727 2.09555569 25.33260019 2.09765625 26.68359375 C2.10277222 27.39100708 2.10788818 28.09842041 2.11315918 28.82727051 C2.11347032 30.55192617 2.06225761 32.27646838 2 34 C1 35 1 35 -1.81568909 35.12025452 C-3.70431923 35.1169236 -3.70431923 35.1169236 -5.63110352 35.11352539 C-6.33498923 35.11364593 -7.03887495 35.11376646 -7.76409054 35.11389065 C-10.05239411 35.11314167 -12.34061717 35.10551417 -14.62890625 35.09765625 C-16.03771933 35.09618678 -17.44653295 35.0951661 -18.85534668 35.09460449 C-24.09107276 35.08935216 -29.32678716 35.07539107 -34.5625 35.0625 C-52.1040625 35.0315625 -52.1040625 35.0315625 -70 35 C-70 67.34 -70 99.68 -70 133 C-55.81 133 -41.62 133 -27 133 C-27 133.33 -27 133.66 -27 134 C-41.85 134 -56.7 134 -72 134 C-72.04010881 109.08351633 -72.04010881 109.08351633 -72.04882812 98.50195312 C-72.05481712 91.26797761 -72.06191893 84.0340147 -72.07543945 76.80004883 C-72.08626645 70.97105712 -72.09227643 65.14207891 -72.09487724 59.31307793 C-72.09673183 57.0838239 -72.10035308 54.85457065 -72.10573006 52.62532234 C-72.11293799 49.51460266 -72.11399105 46.40393951 -72.11352539 43.29321289 C-72.11712067 42.36173431 -72.12071594 41.43025574 -72.12442017 40.47055054 C-72.11405216 34.11405216 -72.11405216 34.11405216 -71 33 C-68.79132169 32.90567015 -66.57958479 32.88257569 -64.36889648 32.88647461 C-63.67624695 32.88632858 -62.98359741 32.88618256 -62.2699585 32.8860321 C-59.97030554 32.88673126 -57.67073263 32.89452372 -55.37109375 32.90234375 C-53.78068588 32.90420792 -52.19027743 32.90563183 -50.59986877 32.90663147 C-46.4060407 32.91045671 -42.21224705 32.92028705 -38.01843262 32.93133545 C-32.99076295 32.94334403 -27.96308181 32.94795178 -22.93540192 32.95378876 C-15.29024398 32.96349881 -7.64516162 32.98265529 0 33 C0 22.11 0 11.22 0 0 Z " fill="#BF2726" transform="translate(490,204)"/>
<path d="M0 0 C0.33 0 0.66 0 1 0 C1 10.89 1 21.78 1 33 C12.22 33 23.44 33 35 33 C35 33.33 35 33.66 35 34 C23.78 34 12.56 34 1 34 C1 44.56 1 55.12 1 66 C23.77 66 46.54 66 70 66 C70 66.33 70 66.66 70 67 C47.56 67.33 25.12 67.66 2 68 C2 78.23 2 88.46 2 99 C1.87188418 104.48839025 1.73272782 109.95581638 1.5 115.4375 C1.45230469 116.68080078 1.40460938 117.92410156 1.35546875 119.20507812 C1.24226812 122.13697445 1.12399902 125.06854451 1 128 C0.67 128 0.34 128 0 128 C0 96.98 0 65.96 0 34 C-44.88 34 -89.76 34 -136 34 C-135.67 32.68 -135.34 31.36 -135 30 C-135 30.99 -135 31.98 -135 33 C-90.45 33 -45.9 33 0 33 C0 22.11 0 11.22 0 0 Z " fill="#5E3A3D" transform="translate(894,600)"/>
<path d="M0 0 C10.56 0 21.12 0 32 0 C32 11.22 32 22.44 32 34 C21.77 34 11.54 34 1 34 C1 44.89 1 55.78 1 67 C-9.89 67 -20.78 67 -32 67 C-32 56.11 -32 45.22 -32 34 C-21.44 34 -10.88 34 0 34 C0 22.78 0 11.56 0 0 Z M2 2 C2 11.9 2 21.8 2 32 C11.57 32 21.14 32 31 32 C31 22.1 31 12.2 31 2 C21.43 2 11.86 2 2 2 Z M-31 35 C-31 44.9 -31 54.8 -31 65 C-20.77 65 -10.54 65 0 65 C0 55.1 0 45.2 0 35 C-10.23 35 -20.46 35 -31 35 Z " fill="#0A0F18" transform="translate(727,438)"/>
<path d="M0 0 C9.9 0 19.8 0 30 0 C30 0.33 30 0.66 30 1 C20.76 1 11.52 1 2 1 C2.020625 5.5375 2.04125 10.075 2.0625 14.75 C2.10161511 32.84980297 1.56537563 50.90797991 1 69 C-10.55 69 -22.1 69 -34 69 C-34 68.67 -34 68.34 -34 68 C-22.95669135 66.99114962 -12.08532271 66.91967157 -1 67 C-1 56.44 -1 45.88 -1 35 C-23.11 35 -45.22 35 -68 35 C-68 34.67 -68 34.34 -68 34 C-53.09439622 33.00778457 -38.24709224 32.87927761 -23.3125 32.9375 C-21.03841246 32.94253081 -18.76432382 32.94709089 -16.49023438 32.95117188 C-10.99343945 32.96117696 -5.49680077 32.98077295 0 33 C0 22.11 0 11.22 0 0 Z " fill="#0E1216" transform="translate(595,238)"/>
<path d="M0 0 C43.56 0 87.12 0 132 0 C132 10.23 132 20.46 132 31 C138.87992431 30.96071366 138.87992431 30.96071366 145.75976562 30.90991211 C146.63310547 30.90741455 147.50644531 30.90491699 148.40625 30.90234375 C149.28603516 30.89710693 150.16582031 30.89187012 151.07226562 30.88647461 C154.73095659 31.02834346 158.36683362 31.5458542 162 32 C162 43.55 162 55.1 162 67 C161.67 67 161.34 67 161 67 C161 56.11 161 45.22 161 34 C150.77 34 140.54 34 130 34 C130 23.11 130 12.22 130 1 C87.1 1 44.2 1 0 1 C0 0.67 0 0.34 0 0 Z " fill="#2C2E30" transform="translate(190,600)"/>
<path d="M0 0 C12.21 0 24.42 0 37 0 C37 10.89 37 21.78 37 33 C25.45 33 13.9 33 2 33 C2 54.78 2 76.56 2 99 C1.67 99 1.34 99 1 99 C0.86641311 90.96465192 0.73591081 82.92926104 0.60884857 74.89380741 C0.5496958 71.15842882 0.48966412 67.42306971 0.42724609 63.68774414 C0.07331376 42.454891 -0.04638047 21.23645579 0 0 Z M2 2 C2 11.9 2 21.8 2 32 C12.89 32 23.78 32 35 32 C35 22.1 35 12.2 35 2 C24.11 2 13.22 2 2 2 Z " fill="#322024" transform="translate(559,666)"/>
<path d="M0 0 C21.12 0 42.24 0 64 0 C63.67 0.99 63.34 1.98 63 3 C43.2 3 23.4 3 3 3 C3 12.57 3 22.14 3 32 C1.515 32.495 1.515 32.495 0 33 C0 22.11 0 11.22 0 0 Z " fill="#303032" transform="translate(222,405)"/>
<path d="M0 0 C0.33 0 0.66 0 1 0 C1 22.44 1 44.88 1 68 C-9.89 68 -20.78 68 -32 68 C-32 56.78 -32 45.56 -32 34 C-21.44 34 -10.88 34 0 34 C0 22.78 0 11.56 0 0 Z M-30 35 C-30 45.23 -30 55.46 -30 66 C-20.43 66 -10.86 66 -1 66 C-1 55.77 -1 45.54 -1 35 C-10.57 35 -20.14 35 -30 35 Z " fill="#AF2F2F" transform="translate(759,732)"/>
<path d="M0 0 C0.33 0 0.66 0 1 0 C1 9.57 1 19.14 1 29 C20.8 29 40.6 29 61 29 C61 29.66 61 30.32 61 31 C40.54 31 20.08 31 -1 31 C-0.67 20.77 -0.34 10.54 0 0 Z " fill="#0F1B20" transform="translate(696,570)"/>
<path d="M0 0 C0.66 0 1.32 0 2 0 C2.02902168 4.41665288 2.04680608 8.83328123 2.0625 13.25 C2.07087891 14.50425781 2.07925781 15.75851563 2.08789062 17.05078125 C2.09111328 18.25605469 2.09433594 19.46132812 2.09765625 20.703125 C2.10289307 21.81333008 2.10812988 22.92353516 2.11352539 24.06738281 C2.01658493 26.57157379 1.73230276 28.6181156 1 31 C1.66 31.33 2.32 31.66 3 32 C2.67 43.22 2.34 54.44 2 66 C1.67 66 1.34 66 1 66 C0.67 55.11 0.34 44.22 0 33 C-9.9 33 -19.8 33 -30 33 C-30 32.67 -30 32.34 -30 32 C-20.1 32 -10.2 32 0 32 C0 21.44 0 10.88 0 0 Z " fill="#342224" transform="translate(625,205)"/>
<path d="M0 0 C10.23 0 20.46 0 31 0 C31 0.33 31 0.66 31 1 C21.43 1 11.86 1 2 1 C2 10.57 2 20.14 2 30 C11.57 30.33 21.14 30.66 31 31 C31 31.33 31 31.66 31 32 C20.77 32 10.54 32 0 32 C0 21.44 0 10.88 0 0 Z " fill="#212124" transform="translate(862,635)"/>
<path d="M0 0 C0.33 0 0.66 0 1 0 C1.33 16.83 1.66 33.66 2 51 C-1.02645155 52.51322577 -4.10771861 52.00453618 -7.4140625 51.87890625 C-8.14370209 51.85529526 -8.87334167 51.83168427 -9.62509155 51.80735779 C-11.95859139 51.73070246 -14.29176089 51.64668657 -16.625 51.5625 C-18.20571293 51.50928115 -19.78644205 51.45654074 -21.3671875 51.40429688 C-25.24500138 51.27508487 -29.12253486 51.13927041 -33 51 C-33 50.67 -33 50.34 -33 50 C-22.11 50 -11.22 50 0 50 C0 33.5 0 17 0 0 Z " fill="#3E3F41" transform="translate(385,288)"/>
</svg>
