<?xml version="1.0" encoding="UTF-8"?>
<svg version="1.1" xmlns="http://www.w3.org/2000/svg" width="1024" height="1024">
<path d="M0 0 C337.92 0 675.84 0 1024 0 C1024 337.92 1024 675.84 1024 1024 C686.08 1024 348.16 1024 0 1024 C0 686.08 0 348.16 0 0 Z " transform="translate(0,0)"/>
<path d="M0 0 C22.11 0 44.22 0 67 0 C67 33.33 67 66.66 67 101 C167.98 101 268.96 101 373 101 C373 67.67 373 34.34 373 0 C394.78 0 416.56 0 439 0 C439 15.51 439 31.02 439 47 C453.52 47 468.04 47 483 47 C483 97.16 483 147.32 483 199 C468.48 199 453.96 199 439 199 C439 255.1 439 311.2 439 369 C452.53 369 466.06 369 480 369 C480 381.54 480 394.08 480 407 C493.53 407 507.06 407 521 407 C521 419.54 521 432.08 521 445 C533.87 445 546.74 445 560 445 C560 480.64 560 516.28 560 553 C572.87 553 585.74 553 599 553 C599 609.43 599 665.86 599 724 C586.13 724 573.26 724 560 724 C560 736.54 560 749.08 560 762 C533.93 762 507.86 762 481 762 C481 749.46 481 736.92 481 724 C467.47 724 453.94 724 440 724 C440 754.03 440 784.06 440 815 C453.53 815 467.06 815 481 815 C481 863.51 481 912.02 481 962 C410.71 962 340.42 962 268 962 C268 941.87 268 921.74 268 901 C278.56 901 289.12 901 300 901 C300 872.62 300 844.24 300 815 C289.44 815 278.88 815 268 815 C268 797.51 268 780.02 268 762 C240.61 762 213.22 762 185 762 C185 828 185 894 185 962 C120.65 962 56.3 962 -10 962 C-10 941.87 -10 921.74 -10 901 C-0.1 901 9.8 901 20 901 C20 886.48 20 871.96 20 857 C34.85 857 49.7 857 65 857 C65 824.99 65 792.98 65 760 C28.7 760 -7.6 760 -45 760 C-45 746.8 -45 733.6 -45 720 C-58.53 720 -72.06 720 -86 720 C-86 704.16 -86 688.32 -86 672 C-99.2 672 -112.4 672 -126 672 C-126 657.81 -126 643.62 -126 629 C-149.76 629 -173.52 629 -198 629 C-198 614.15 -198 599.3 -198 584 C-211.53 584 -225.06 584 -239 584 C-239 569.81 -239 555.62 -239 541 C-251.87 541 -264.74 541 -278 541 C-278 496.78 -278 452.56 -278 407 C-265.13 407 -252.26 407 -239 407 C-239 392.48 -239 377.96 -239 363 C-201.38 363 -163.76 363 -125 363 C-125 377.52 -125 392.04 -125 407 C-112.13 407 -99.26 407 -86 407 C-86 422.84 -86 438.68 -86 455 C-72.14 455 -58.28 455 -44 455 C-44 478.1 -44 501.2 -44 525 C-29.48 525 -14.96 525 0 525 C0 511.47 0 497.94 0 484 C12.21 484 24.42 484 37 484 C37 471.13 37 458.26 37 445 C24.79 445 12.58 445 0 445 C0 363.82 0 282.64 0 199 C-14.85 199 -29.7 199 -45 199 C-45 148.84 -45 98.68 -45 47 C-30.15 47 -15.3 47 0 47 C0 31.49 0 15.98 0 0 Z " fill="#18191D" transform="translate(300,27)"/>
<path d="M0 0 C69.96 0 139.92 0 212 0 C212 32.34 212 64.68 212 98 C242.36 98 272.72 98 304 98 C304 143.87 304 189.74 304 237 C282.55 237 261.1 237 239 237 C239 248.88 239 260.76 239 273 C286.19 273 333.38 273 382 273 C382 273.66 382 274.32 382 275 C395.53 275 409.06 275 423 275 C423 287.54 423 300.08 423 313 C435.87 313 448.74 313 462 313 C462 348.64 462 384.28 462 421 C474.87 421 487.74 421 501 421 C501 477.43 501 533.86 501 592 C488.13 592 475.26 592 462 592 C462 604.54 462 617.08 462 630 C435.93 630 409.86 630 383 630 C383 600.3 383 570.6 383 540 C371.78 540 360.56 540 349 540 C346.69 539.67 344.38 539.34 342 539 C342 527.12 342 515.24 342 503 C355.53 503 369.06 503 383 503 C383 480.23 383 457.46 383 434 C369.47 434 355.94 434 342 434 C342 420.47 342 406.94 342 393 C319.23 393.33 296.46 393.66 273 394 C272.67 429.64 272.34 465.28 272 502 C181.91 502 91.82 502 -1 502 C-1 479.23 -1 456.46 -1 433 C-11.23 433 -21.46 433 -32 433 C-32 393.07 -32 353.14 -32 312 C57.1 312 146.2 312 238 312 C238 299.46 238 286.92 238 274 C139 274 40 274 -62 274 C-62 240.01 -62 206.02 -62 171 C-53.75 171 -45.5 171 -37 171 C-37.33 153.18 -37.66 135.36 -38 117 C-45.92 116.67 -53.84 116.34 -62 116 C-62 99.83 -62 83.66 -62 67 C-41.54 67 -21.08 67 0 67 C0 44.89 0 22.78 0 0 Z " fill="#B72529" transform="translate(398,159)"/>
<path d="M0 0 C22.11 0 44.22 0 67 0 C67 33.33 67 66.66 67 101 C167.98 101 268.96 101 373 101 C373 67.67 373 34.34 373 0 C394.78 0 416.56 0 439 0 C439 15.51 439 31.02 439 47 C453.52 47 468.04 47 483 47 C483 97.16 483 147.32 483 199 C468.48 199 453.96 199 439 199 C439 255.1 439 311.2 439 369 C452.53 369 466.06 369 480 369 C480 380.88 480 392.76 480 405 C432.81 405 385.62 405 337 405 C337 393.12 337 381.24 337 369 C358.45 369 379.9 369 402 369 C402 323.13 402 277.26 402 230 C371.64 230 341.28 230 310 230 C310 197.66 310 165.32 310 132 C240.04 132 170.08 132 98 132 C98 154.11 98 176.22 98 199 C77.54 199 57.08 199 36 199 C36 215.17 36 231.34 36 248 C43.92 248 51.84 248 60 248 C61 249 61 249 61.12025452 251.17030334 C61.11803391 252.12738693 61.11581329 253.08447052 61.11352539 254.07055664 C61.11341209 255.69212425 61.11341209 255.69212425 61.11329651 257.34645081 C61.10813522 258.5224736 61.10297394 259.6984964 61.09765625 260.91015625 C61.0962413 262.10732773 61.09482635 263.30449921 61.09336853 264.53794861 C61.08774979 268.37949066 61.07519411 272.22097543 61.0625 276.0625 C61.05748741 278.65950437 61.05292409 281.25650965 61.04882812 283.85351562 C61.03862313 290.23571716 61.01905136 296.6177941 61 303 C52.75 303 44.5 303 36 303 C36 336.99 36 370.98 36 406 C135 406 234 406 336 406 C336 418.54 336 431.08 336 444 C246.57 444 157.14 444 65 444 C65 470.73 65 497.46 65 525 C43.55 525 22.1 525 0 525 C0 511.47 0 497.94 0 484 C12.21 484 24.42 484 37 484 C37 471.13 37 458.26 37 445 C24.79 445 12.58 445 0 445 C0 363.82 0 282.64 0 199 C-14.85 199 -29.7 199 -45 199 C-45 148.84 -45 98.68 -45 47 C-30.15 47 -15.3 47 0 47 C0 31.49 0 15.98 0 0 Z " fill="#17191D" transform="translate(300,27)"/>
<path d="M0 0 C69.96 0 139.92 0 212 0 C212 32.34 212 64.68 212 98 C242.36 98 272.72 98 304 98 C304 143.87 304 189.74 304 237 C282.55 237 261.1 237 239 237 C239 248.88 239 260.76 239 273 C140 272.67 41 272.34 -61 272 C-61 239 -61 206 -61 172 C-53.41 171.67 -45.82 171.34 -38 171 C-38 153.18 -38 135.36 -38 117 C-45.92 116.67 -53.84 116.34 -62 116 C-62 99.83 -62 83.66 -62 67 C-41.54 67 -21.08 67 0 67 C0 44.89 0 22.78 0 0 Z " fill="#B82529" transform="translate(398,159)"/>
<path d="M0 0 C37.62 0 75.24 0 114 0 C114 14.52 114 29.04 114 44 C126.87 44 139.74 44 153 44 C153 59.84 153 75.68 153 92 C166.86 92 180.72 92 195 92 C195 115.1 195 138.2 195 162 C230.97 162 266.94 162 304 162 C304 135.27 304 108.54 304 81 C304.33 81 304.66 81 305 81 C305.03082941 99.72915789 305.05104365 118.45832082 305.0625 137.1875 C305.0629343 137.87730627 305.06336861 138.56711253 305.06381607 139.27782202 C305.0852184 174.20832242 305.07941668 209.13568025 304.5 244.0625 C304.48206327 245.14476679 304.48206327 245.14476679 304.46376419 246.24889755 C304.32562677 254.49964617 304.16649172 262.74974057 304 271 C294.43 271 284.86 271 275 271 C275 283.54 275 296.08 275 309 C284.57 309 294.14 309 304 309 C304 325.83 304 342.66 304 360 C282.55 360 261.1 360 239 360 C239 342.84 239 325.68 239 308 C210.95 308 182.9 308 154 308 C154 294.14 154 280.28 154 266 C116.71 266 79.42 266 41 266 C41 251.15 41 236.3 41 221 C27.47 221 13.94 221 0 221 C0 206.81 0 192.62 0 178 C-12.87 178 -25.74 178 -39 178 C-39 133.78 -39 89.56 -39 44 C-26.13 44 -13.26 44 0 44 C0 29.48 0 14.96 0 0 Z " fill="#844927" transform="translate(61,390)"/>
<path d="M0 0 C101.97 0 203.94 0 309 0 C309 47.19 309 94.38 309 143 C320.22 143 331.44 143 343 143 C343 171.38 343 199.76 343 229 C309.34 229 275.68 229 241 229 C241 200.62 241 172.24 241 143 C229.12 143 217.24 143 205 143 C203.16705282 141.16705282 203.88000842 138.60750874 203.87557125 136.16886044 C203.87916936 135.32930593 203.88276747 134.48975142 203.88647461 133.62475586 C203.88635407 132.73253861 203.88623354 131.84032137 203.88610935 130.92106724 C203.88685865 128.01896781 203.89448763 125.11693177 203.90234375 122.21484375 C203.90381312 120.42875194 203.90483386 118.64265971 203.90539551 116.85656738 C203.91064899 110.21687171 203.92461007 103.57718524 203.9375 96.9375 C203.958125 82.108125 203.97875 67.27875 204 52 C153.84 52 103.68 52 52 52 C52 110.41 52 168.82 52 229 C34.84 229 17.68 229 0 229 C0 153.43 0 77.86 0 0 Z " fill="#BD262A" transform="translate(397,699)"/>
<path d="M0 0 C50.16 0 100.32 0 152 0 C152.33 29.7 152.66 59.4 153 90 C164.88 90.33 176.76 90.66 189 91 C189 119.38 189 147.76 189 177 C222.66 177 256.32 177 291 177 C291 148.62 291 120.24 291 91 C304.53 91 318.06 91 332 91 C332 139.51 332 188.02 332 238 C261.71 238 191.42 238 119 238 C119 217.87 119 197.74 119 177 C129.56 177 140.12 177 151 177 C151 148.62 151 120.24 151 91 C140.44 91 129.88 91 119 91 C119 73.51 119 56.02 119 38 C91.61 38 64.22 38 36 38 C36 104 36 170 36 238 C-28.35 238 -92.7 238 -159 238 C-159 218.2 -159 198.4 -159 178 C-149.1 178 -139.2 178 -129 178 C-129 189.88 -129 201.76 -129 214 C-103.59 214 -78.18 214 -52 214 C-52 202.12 -52 190.24 -52 178 C-34.84 178 -17.68 178 0 178 C0 119.26 0 60.52 0 0 Z " fill="#18191D" transform="translate(449,751)"/>
<path d="M0 0 C0.33 0 0.66 0 1 0 C1.03082941 18.72915789 1.05104365 37.45832082 1.0625 56.1875 C1.0629343 56.87730627 1.06336861 57.56711253 1.06381607 58.27782202 C1.09072561 102.19657651 0.81510517 146.08620918 0 190 C-21.45 190 -42.9 190 -65 190 C-65 178.78 -65 167.56 -65 156 C-79.85 156 -94.7 156 -110 156 C-110 131.25 -110 106.5 -110 81 C-130.295 80.505 -130.295 80.505 -151 80 C-151 57.23 -151 34.46 -151 11 C-137.14 11 -123.28 11 -109 11 C-109 34.1 -109 57.2 -109 81 C-73.03 81 -37.06 81 0 81 C0 54.27 0 27.54 0 0 Z " fill="#7B1F1F" transform="translate(365,471)"/>
<path d="M0 0 C0.33 0 0.66 0 1 0 C1 54.12 1 108.24 1 164 C-11.21 164 -23.42 164 -36 164 C-36 175.22 -36 186.44 -36 198 C-58.44 198 -80.88 198 -104 198 C-104 175.89 -104 153.78 -104 131 C-81.89 131 -59.78 131 -37 131 C-37 102.95 -37 74.9 -37 46 C-24.79 46 -12.58 46 0 46 C0 30.82 0 15.64 0 0 Z " fill="#34363B" transform="translate(738,28)"/>
<path d="M0 0 C21.45 0 42.9 0 65 0 C65 45.54 65 91.08 65 138 C43.55 138 22.1 138 0 138 C0 92.46 0 46.92 0 0 Z " fill="#9E2225" transform="translate(637,257)"/>
<path d="M0 0 C37.6806418 -0.14719001 75.32162744 0.43658508 113 1 C113 29.71 113 58.42 113 88 C89.24 88 65.48 88 41 88 C41 73.15 41 58.3 41 43 C27.47 43 13.94 43 0 43 C0 28.81 0 14.62 0 0 Z " fill="#552E1C" transform="translate(61,568)"/>
<path d="M0 0 C21.78 0 43.56 0 66 0 C66 46.53 66 93.06 66 141 C55.11 141 44.22 141 33 141 C33 123.18 33 105.36 33 87 C22.11 87 11.22 87 0 87 C0 58.29 0 29.58 0 0 Z " fill="#9D2125" transform="translate(638,701)"/>
<path d="M0 0 C37.62 0 75.24 0 114 0 C114 14.52 114 29.04 114 44 C126.87 44 139.74 44 153 44 C153 59.84 153 75.68 153 92 C139.8 92 126.6 92 113 92 C113 76.16 113 60.32 113 44 C75.71 44 38.42 44 0 44 C0 29.48 0 14.96 0 0 Z " fill="#17191D" transform="translate(61,390)"/>
<path d="M0 0 C12.87 0 25.74 0 39 0 C39 56.43 39 112.86 39 171 C26.13 171 13.26 171 0 171 C0 114.57 0 58.14 0 0 Z " fill="#17191C" transform="translate(860,580)"/>
<path d="M0 0 C13.86 0 27.72 0 42 0 C42 23.1 42 46.2 42 70 C56.52 70 71.04 70 86 70 C86 94.75 86 119.5 86 145 C71.15 145 56.3 145 41 145 C41 120.25 41 95.5 41 70 C20.705 69.505 20.705 69.505 0 69 C0 46.23 0 23.46 0 0 Z " fill="#17191D" transform="translate(214,482)"/>
<path d="M0 0 C0.33 0 0.66 0 1 0 C1 46.53 1 93.06 1 141 C12.22 141 23.44 141 35 141 C34.67 169.05 34.34 197.1 34 226 C1 226 -32 226 -66 226 C-66 211.81 -66 197.62 -66 183 C-44.22 183 -22.44 183 0 183 C0 122.61 0 62.22 0 0 Z " fill="#9C2125" transform="translate(705,701)"/>
<path d="M0 0 C13.53 0 27.06 0 41 0 C41 12.54 41 25.08 41 38 C53.87 38 66.74 38 80 38 C80 73.64 80 109.28 80 146 C67.13 146 54.26 146 41 146 C41 110.69 41 75.38 41 39 C27.8 39 14.6 39 1 39 C0.67 26.13 0.34 13.26 0 0 Z " fill="#181A1E" transform="translate(780,434)"/>
<path d="M0 0 C0.33 0 0.66 0 1 0 C1 15.51 1 31.02 1 47 C12.55 47 24.1 47 36 47 C36 74.72 36 102.44 36 131 C47.88 131 59.76 131 72 131 C72 142.22 72 153.44 72 165 C48.24 165 24.48 165 0 165 C0 110.55 0 56.1 0 0 Z " fill="#36373C" transform="translate(300,27)"/>
<path d="M0 0 C12.87 0 25.74 0 39 0 C39 44.22 39 88.44 39 134 C26.13 134 13.26 134 0 134 C0 89.78 0 45.56 0 0 Z " fill="#17181C" transform="translate(22,434)"/>
<path d="M0 0 C42.57 0 85.14 0 129 0 C129 11.88 129 23.76 129 36 C86.43 36 43.86 36 0 36 C0 24.12 0 12.24 0 0 Z " fill="#181A1E" transform="translate(369,366)"/>
<path d="M0 0 C7.95563585 0 15.81676762 0.10118261 23.75 0.5 C24.74515625 0.54769531 25.7403125 0.59539063 26.765625 0.64453125 C29.17721929 0.76047328 31.58865603 0.8789822 34 1 C34.13317355 11.31318902 34.26367895 21.62640847 34.39115143 31.93966961 C34.45047503 36.73315221 34.51058006 41.52662182 34.57275391 46.32006836 C34.89929313 71.5494521 35.05012545 96.76810347 35 122 C22.79 122 10.58 122 -2 122 C-2 110.12 -2 98.24 -2 86 C-12.56 86 -23.12 86 -34 86 C-34 85.67 -34 85.34 -34 85 C-22.78 85 -11.56 85 0 85 C0 56.95 0 28.9 0 0 Z " fill="#191A1E" transform="translate(602,843)"/>
<path d="M0 0 C21.72911088 -0.08389618 43.29099923 0.11391834 65 1 C65 17.83 65 34.66 65 52 C43.55 52 22.1 52 0 52 C0 34.84 0 17.68 0 0 Z " fill="#562E1C" transform="translate(300,698)"/>
<path d="M0 0 C23.76 0 47.52 0 72 0 C72 14.85 72 29.7 72 45 C48.24 45 24.48 45 0 45 C0 30.15 0 15.3 0 0 Z " fill="#17181C" transform="translate(102,611)"/>
<path d="M0 0 C26.07 0 52.14 0 79 0 C79 12.54 79 25.08 79 38 C52.93 38 26.86 38 0 38 C0 25.46 0 12.92 0 0 Z " fill="#17181C" transform="translate(781,751)"/>
<path d="M0 0 C13.53 0 27.06 0 41 0 C41 22.77 41 45.54 41 69 C27.47 69 13.94 69 0 69 C0 46.23 0 23.46 0 0 Z " fill="#1A1A1E" transform="translate(740,593)"/>
<path d="M0 0 C9.09573433 -0.0235954 18.19145749 -0.04114739 27.28721619 -0.05181217 C31.51473095 -0.05694117 35.74222419 -0.06384667 39.96972656 -0.07543945 C62.0092511 -0.13430424 83.9724905 0.19427025 106 1 C106 12.88 106 24.76 106 37 C80.92 37 55.84 37 30 37 C30 25.12 30 13.24 30 1 C20.1 1 10.2 1 0 1 C0 0.67 0 0.34 0 0 Z " fill="#36373C" transform="translate(290,928)"/>
<path d="M0 0 C10.89 0 21.78 0 33 0 C33 22.44 33 44.88 33 68 C22.11 68 11.22 68 0 68 C0 45.56 0 23.12 0 0 Z " fill="#FCFCFC" transform="translate(706,593)"/>
<path d="M0 0 C10.89 0 21.78 0 33 0 C33 22.44 33 44.88 33 68 C22.11 67.67 11.22 67.34 0 67 C0 44.89 0 22.78 0 0 Z " fill="#9F2125" transform="translate(577,159)"/>
<path d="M0 0 C12.87 0 25.74 0 39 0 C39 17.82 39 35.64 39 54 C26.13 54 13.26 54 0 54 C0 36.18 0 18.36 0 0 Z " fill="#FED632" transform="translate(499,275)"/>
<path d="M0 0 C12.54 0 25.08 0 38 0 C38 17.82 38 35.64 38 54 C25.46 54 12.92 54 0 54 C0 36.18 0 18.36 0 0 Z " fill="#17191D" transform="translate(538,275)"/>
<path d="M0 0 C15.84 0 31.68 0 48 0 C48 13.86 48 27.72 48 42 C32.16 42 16.32 42 0 42 C0 28.14 0 14.28 0 0 Z " fill="#9D2125" transform="translate(399,885)"/>
<path d="M0 0 C11.88 0 23.76 0 36 0 C36 17.82 36 35.64 36 54 C24.12 54 12.24 54 0 54 C0 36.18 0 18.36 0 0 Z " fill="#FED531" transform="translate(361,275)"/>
<path d="M0 0 C13.53 0 27.06 0 41 0 C41 14.85 41 29.7 41 45 C27.47 45 13.94 45 0 45 C0 30.15 0 15.3 0 0 Z " fill="#552E1C" transform="translate(174,611)"/>
<path d="M0 0 C13.53 0 27.06 0 41 0 C41 14.19 41 28.38 41 43 C27.47 43 13.94 43 0 43 C0 28.81 0 14.62 0 0 Z " fill="#17181C" transform="translate(61,568)"/>
<path d="M0 0 C13.53 0 27.06 0 41 0 C41 13.86 41 27.72 41 42 C27.47 42 13.94 42 0 42 C0 28.14 0 14.28 0 0 Z " fill="#562E1C" transform="translate(61,526)"/>
<path d="M0 0 C13.53 0 27.06 0 41 0 C41 13.53 41 27.06 41 41 C27.47 41 13.94 41 0 41 C0 27.47 0 13.94 0 0 Z " fill="#562E1C" transform="translate(215,657)"/>
<path d="M0 0 C0.33 0 0.66 0 1 0 C1.33 12.54 1.66 25.08 2 38 C20.81 38.495 20.81 38.495 40 39 C40 50.55 40 62.1 40 74 C26.8 74 13.6 74 0 74 C0 49.58 0 25.16 0 0 Z " fill="#9E2125" transform="translate(780,435)"/>
<path d="M0 0 C0 13.86 0 27.72 0 42 C-11.22 42 -22.44 42 -34 42 C-34 28.47 -34 14.94 -34 1 C-22.68687816 0.24579188 -11.33823423 0 0 0 Z " fill="#9E2125" transform="translate(705,509)"/>
<path d="M0 0 C22.77 0 45.54 0 69 0 C69 12.21 69 24.42 69 37 C56.79 37 44.58 37 32 37 C32 25.12 32 13.24 32 1 C21.44 1 10.88 1 0 1 C0 0.67 0 0.34 0 0 Z " fill="#37383D" transform="translate(568,928)"/>
<path d="M0 0 C9.9 0 19.8 0 30 0 C30 11.88 30 23.76 30 36 C15.15 35.505 15.15 35.505 0 35 C0 23.45 0 11.9 0 0 Z " fill="#9B2125" transform="translate(607,396)"/>
<path d="M0 0 C50.16 0 100.32 0 152 0 C152.56357774 47.12918877 153.10706357 94.24345404 153.0625 141.375 C153.06164398 142.28703312 153.06078796 143.19906624 153.05990601 144.13873672 C153.04883284 155.09251338 153.0292675 166.04625685 153 177 C152.34 177 151.68 177 151 177 C151 148.62 151 120.24 151 91 C140.77 91 130.54 91 120 91 C120 73.51 120 56.02 120 38 C120.33 38 120.66 38 121 38 C121.33 54.83 121.66 71.66 122 89 C131.24 89 140.48 89 150 89 C150 59.96 150 30.92 150 1 C100.83 1 51.66 1 1 1 C1 59.08 1 117.16 1 177 C0.67 177 0.34 177 0 177 C0 118.59 0 60.18 0 0 Z " fill="#041115" transform="translate(449,751)"/>
<path d="M0 0 C12.87 0 25.74 0 39 0 C39 35.31 39 70.62 39 107 C26.13 107 13.26 107 0 107 C0 71.69 0 36.38 0 0 Z M1 1 C0.95203816 24.29146858 1.09665382 47.56472116 1.46356201 70.8526001 C1.53694441 75.55485097 1.60625545 80.2571637 1.67631531 84.95946503 C1.78123362 91.97302641 1.89105235 98.9864949 2 106 C13.55 106 25.1 106 37 106 C37 71.35 37 36.7 37 1 C25.12 1 13.24 1 1 1 Z " fill="#060E12" transform="translate(821,473)"/>
<path d="M0 0 C0.33 0 0.66 0 1 0 C1.04626405 12.61267227 1.08183895 25.22532448 1.10362434 37.83806419 C1.11407824 43.69415653 1.12826667 49.55019098 1.15087891 55.40625 C1.1725501 61.05370277 1.18455651 66.70109972 1.18975449 72.34859085 C1.19346056 74.50724797 1.20069719 76.6659019 1.21146011 78.82453537 C1.22589897 81.8393091 1.22798114 84.85384981 1.22705078 87.86865234 C1.23424133 88.76848343 1.24143188 89.66831451 1.24884033 90.59541321 C1.22810432 96.77189568 1.22810432 96.77189568 -1 99 C-2.87295532 99.24050903 -2.87295532 99.24050903 -5.17431641 99.22705078 C-6.03505768 99.22689972 -6.89579895 99.22674866 -7.78262329 99.22659302 C-8.71287323 99.21627045 -9.64312317 99.20594788 -10.6015625 99.1953125 C-11.55316254 99.1924826 -12.50476257 99.18965271 -13.48519897 99.18673706 C-16.53192592 99.17551989 -19.57836154 99.15041263 -22.625 99.125 C-24.68749576 99.11497218 -26.74999612 99.10584599 -28.8125 99.09765625 C-33.87520321 99.077275 -38.93727456 99.03812931 -44 99 C-44 112.86 -44 126.72 -44 141 C-44.66 141 -45.32 141 -46 141 C-46 126.48 -46 111.96 -46 97 C-31.15 97 -16.3 97 -1 97 C-1.01740234 86.62240234 -1.01740234 86.62240234 -1.03515625 76.03515625 C-1.04026289 71.66471261 -1.04507665 67.29427262 -1.04882812 62.92382812 C-1.05481702 55.97956584 -1.06191857 49.03531669 -1.07543945 42.09106445 C-1.08626678 36.49549147 -1.0922765 30.89993255 -1.09487724 25.3043499 C-1.09673177 23.16441056 -1.10035291 21.02447204 -1.10573006 18.88453865 C-1.11293844 15.89835034 -1.11399103 12.91222093 -1.11352539 9.92602539 C-1.11712067 9.03194977 -1.12071594 8.13787415 -1.12442017 7.21670532 C-1.11405216 1.11405216 -1.11405216 1.11405216 0 0 Z " fill="#08090C" transform="translate(366,787)"/>
<path d="M0 0 C37.29 0 74.58 0 113 0 C113 14.52 113 29.04 113 44 C75.71 44 38.42 44 0 44 C0 43.67 0 43.34 0 43 C36.63 43 73.26 43 111 43 C111 29.47 111 15.94 111 2 C105.3075 2.020625 99.615 2.04125 93.75 2.0625 C72.93413103 2.09706805 52.12527739 1.82068549 31.3125 1.5 C30.14801582 1.48206327 30.14801582 1.48206327 28.96000671 1.46376419 C19.3065822 1.3145733 9.65325359 1.15987974 0 1 C0 0.67 0 0.34 0 0 Z " fill="#2A2424" transform="translate(62,390)"/>
<path d="M0 0 C0.99 0.33 1.98 0.66 3 1 C2.67 1.99 2.34 2.98 2 4 C1.92929638 5.61186582 1.91579885 7.22657394 1.9375 8.83984375 C1.94587891 9.81179687 1.95425781 10.78375 1.96289062 11.78515625 C1.97513672 12.82542969 1.98738281 13.86570313 2 14.9375 C2.07379229 25.99292638 1.68340768 36.96784739 1 48 C1.33 47.34 1.66 46.68 2 46 C7.09029944 45.9259579 12.18028692 45.87144992 17.27099609 45.83520508 C19.00347349 45.8200991 20.73591254 45.79961306 22.46826172 45.77368164 C24.95549978 45.73737679 27.44223326 45.72029235 29.9296875 45.70703125 C30.70682098 45.69154739 31.48395447 45.67606354 32.28463745 45.66011047 C34.46826172 45.65942383 34.46826172 45.65942383 38 46 C40.26151314 49.39226971 40.22584668 50.43050006 40.13525391 54.3894043 C40.11508209 55.49031906 40.09491028 56.59123383 40.0741272 57.72550964 C40.02583267 59.50687065 40.02583267 59.50687065 39.9765625 61.32421875 C39.93902359 63.14902519 39.93902359 63.14902519 39.90072632 65.01069641 C39.81843541 68.90324388 39.72187958 72.79529091 39.625 76.6875 C39.56676984 79.32354714 39.50946637 81.95961493 39.453125 84.59570312 C39.31458717 91.06419745 39.15677871 97.53181891 39 104 C26.13 104 13.26 104 0 104 C0 103.67 0 103.34 0 103 C12.54 103 25.08 103 38 103 C38 85.18 38 67.36 38 49 C26.21481925 49.03922831 26.21481925 49.03922831 14.4296875 49.09008789 C4.24293044 49.11850836 -5.84162818 48.78652896 -16 48 C-16 47.67 -16 47.34 -16 47 C-10.72 47 -5.44 47 0 47 C0 31.49 0 15.98 0 0 Z " fill="#861F25" transform="translate(538,226)"/>
<path d="M0 0 C0.66 0 1.32 0 2 0 C2 21.78 2 43.56 2 66 C13.22 66.33 24.44 66.66 36 67 C36 67.33 36 67.66 36 68 C24.12 68 12.24 68 0 68 C0 45.56 0 23.12 0 0 Z " fill="#0D151E" transform="translate(214,483)"/>
</svg>
